# xmcd
#
# Track frame offsets: 
#        150
#        12305
#        24883
#        38784
#        51331
#        61152
#        72016
#        86334
#        99604
#        113186
#
# Disc length: 1762 seconds
#
# Revision: 0
# Processed by: cddbd v1.4PL0 Copyright (c) Steve Scherf et al.
# Submitted via: ExactAudioCopy v0.90b4
#
DISCID=7506e00a
DTITLE=Bobby Lee Springfield - All Fired Up !
DYEAR=1987
DGENRE=Country
TTITLE0=Hank Drank
TTITLE1=Teenage Darling
TTITLE2=Chain Gang
TTITLE3=I Need A Girlfriend
TTITLE4=Wild Cat
TTITLE5=All Fired Up
TTITLE6=What's He Doing In My World
TTITLE7=Opry Time
TTITLE8='Til You Got A Hold Of Me
TTITLE9=Jesus, You've Been A Friend To Me
EXTD=
EXTT0=
EXTT1=
EXTT2=
EXTT3=
EXTT4=
EXTT5=
EXTT6=
EXTT7=
EXTT8=
EXTT9=
PLAYORDER=
